<?xml version="1.0" standalone="no"?>
<!DOCTYPE svg PUBLIC "-//W3C//DTD SVG 20010904//EN"
 "http://www.w3.org/TR/2001/REC-SVG-20010904/DTD/svg10.dtd">
<svg version="1.0" xmlns="http://www.w3.org/2000/svg"
 width="327.000000pt" height="327.000000pt" viewBox="0 0 327.000000 327.000000"
 preserveAspectRatio="xMidYMid meet">

<g transform="translate(0.000000,327.000000) scale(0.100000,-0.100000)"
fill="#000000" stroke="none">
<path d="M1406 2232 c-5 -32 -1 -41 27 -70 25 -26 29 -35 18 -41 -11 -7 -3
-27 37 -93 28 -46 63 -119 78 -163 24 -69 28 -96 28 -197 l1 -118 37 0 37 0 0
98 c-1 135 37 264 113 383 45 70 53 93 32 85 -12 -5 -11 0 5 22 11 16 27 35
36 42 18 15 20 54 3 68 -7 5 -34 12 -60 15 -46 6 -47 5 -57 -26 -16 -53 -23
-142 -12 -169 8 -20 5 -33 -10 -59 -11 -19 -34 -63 -51 -98 l-31 -64 -20 39
c-10 22 -31 59 -45 84 -21 36 -25 55 -23 107 3 78 -8 155 -21 147 -5 -4 -26 2
-46 11 -21 10 -44 21 -53 26 -13 6 -18 1 -23 -29z"/>
<path d="M2207 2209 c-102 -41 -207 -42 -207 -2 0 12 -15 3 -50 -32 l-51 -50
38 -8 c47 -10 159 7 228 36 58 24 105 54 105 68 0 12 -6 11 -63 -12z"/>
<path d="M960 2215 c0 -3 10 -25 21 -48 33 -64 119 -141 206 -184 73 -36 82
-38 174 -38 60 0 102 4 109 11 9 9 1 28 -32 76 -43 64 -43 65 -78 55 -19 -5
-71 -7 -115 -3 -64 4 -94 13 -152 41 -41 20 -81 48 -93 65 -19 27 -40 39 -40
25z"/>
<path d="M1025 2195 c17 -14 41 -28 55 -31 14 -4 30 -10 35 -14 19 -15 182
-40 214 -34 17 4 31 10 31 13 0 4 -16 22 -34 40 -33 32 -37 33 -66 21 -35 -15
-127 -7 -191 16 -64 22 -79 18 -44 -11z"/>
<path d="M2256 2170 c-24 -22 -64 -49 -90 -61 -57 -25 -162 -35 -233 -21 -60
11 -59 11 -111 -76 -39 -65 -36 -67 94 -67 85 0 95 2 170 39 86 43 162 112
202 184 13 23 21 42 17 42 -3 0 -25 -18 -49 -40z"/>
<path d="M2176 1911 c-18 -20 -20 -39 -7 -60 8 -12 12 -10 21 11 7 14 21 30
32 35 19 8 19 9 -5 20 -21 10 -28 9 -41 -6z"/>
<path d="M1250 1710 c-249 -34 -328 -62 -252 -91 46 -17 302 -58 414 -65 121
-8 111 -17 124 109 l7 67 -79 -1 c-44 0 -140 -9 -214 -19z"/>
<path d="M1733 1650 c4 -46 11 -88 16 -93 7 -7 56 -6 139 2 226 20 408 59 399
84 -9 29 -234 71 -446 84 l-114 6 6 -83z"/>
<path d="M2433 1544 c-13 -49 -46 -136 -75 -194 -46 -93 -63 -116 -150 -202
-54 -54 -103 -98 -109 -98 -12 0 -1 43 12 48 20 8 7 19 -22 20 -17 0 -39 8
-48 16 -10 9 -22 16 -28 16 -6 0 -13 5 -15 11 -2 7 -35 1 -93 -19 -199 -66
-471 -80 -663 -32 -83 20 -299 115 -334 147 -24 21 -23 11 3 -40 147 -290 478
-469 803 -436 358 37 659 311 731 666 9 44 15 103 13 132 l-3 53 -22 -88z"/>
<path d="M822 1552 c18 -156 14 -150 138 -226 159 -98 320 -140 545 -140 152
0 274 19 378 58 63 23 81 40 50 48 -10 3 -72 6 -138 7 -66 1 -156 6 -200 12
-111 14 -313 65 -400 100 -40 16 -79 29 -85 29 -7 0 -24 6 -38 14 -15 8 -58
28 -95 46 -37 17 -71 38 -74 46 -3 8 -11 13 -18 12 -8 -2 -27 12 -42 29 l-29
33 8 -68z"/>
</g>
</svg>
